REM DIRINDEX 1\2,1\3
REM DIRNAME cjc102,folder01,folder02
TITLE ""
FILE "CD1Track05.mp3" MP3
  TRACK 01 AUDIO
    TITLE "0:"
    INDEX 01 00:00:00
  TRACK 02 AUDIO
    TITLE "3:cjc102_0168"
    INDEX 01 00:00:25
  TRACK 03 AUDIO
    TITLE "0:"
    INDEX 01 00:01:19
  TRACK 04 AUDIO
    TITLE "2:cjc102_0169"
    INDEX 01 00:01:30
  TRACK 05 AUDIO
    TITLE "0:"
    INDEX 01 00:02:32
  TRACK 06 AUDIO
    TITLE "3:cjc102_0170"
    INDEX 01 00:03:35
  TRACK 07 AUDIO
    TITLE "0:"
    INDEX 01 00:04:19
  TRACK 08 AUDIO
    TITLE "2:cjc102_0171"
    INDEX 01 00:04:35
  TRACK 09 AUDIO
    TITLE "0:"
    INDEX 01 00:05:38
  TRACK 10 AUDIO
    TITLE "3:cjc102_0172"
    INDEX 01 00:06:39
  TRACK 11 AUDIO
    TITLE "0:"
    INDEX 01 00:07:39
  TRACK 12 AUDIO
    TITLE "2:cjc102_0173"
    INDEX 01 00:07:54
  TRACK 13 AUDIO
    TITLE "0:"
    INDEX 01 00:08:62
  TRACK 14 AUDIO
    TITLE "3:cjc102_0174"
    INDEX 01 00:09:53
  TRACK 15 AUDIO
    TITLE "0:"
    INDEX 01 00:10:41
  TRACK 16 AUDIO
    TITLE "2:cjc102_0175"
    INDEX 01 00:10:45
  TRACK 17 AUDIO
    TITLE "0:"
    INDEX 01 00:11:72
  TRACK 18 AUDIO
    TITLE "3:cjc102_0176"
    INDEX 01 00:12:61
  TRACK 19 AUDIO
    TITLE "0:"
    INDEX 01 00:13:43
  TRACK 20 AUDIO
    TITLE "2:cjc102_0177"
    INDEX 01 00:13:55
  TRACK 21 AUDIO
    TITLE "0:"
    INDEX 01 00:14:62
  TRACK 22 AUDIO
    TITLE "3:cjc102_0178"
    INDEX 01 00:15:60
  TRACK 23 AUDIO
    TITLE "0:"
    INDEX 01 00:16:53
  TRACK 24 AUDIO
    TITLE "2:cjc102_0179"
    INDEX 01 00:16:55
  TRACK 25 AUDIO
    TITLE "0:"
    INDEX 01 00:17:55
  TRACK 26 AUDIO
    TITLE "3:cjc102_0180"
    INDEX 01 00:18:58
  TRACK 27 AUDIO
    TITLE "0:"
    INDEX 01 00:19:50
  TRACK 28 AUDIO
    TITLE "2:cjc102_0181"
    INDEX 01 00:19:71
  TRACK 29 AUDIO
    TITLE "0:"
    INDEX 01 00:21:04
  TRACK 30 AUDIO
    TITLE "3:cjc102_0182"
    INDEX 01 00:22:19
  TRACK 31 AUDIO
    TITLE "0:"
    INDEX 01 00:23:14
  TRACK 32 AUDIO
    TITLE "2:cjc102_0183"
    INDEX 01 00:23:18
  TRACK 33 AUDIO
    TITLE "0:"
    INDEX 01 00:24:27
  TRACK 34 AUDIO
    TITLE "3:cjc102_0184"
    INDEX 01 00:25:43
  TRACK 35 AUDIO
    TITLE "0:"
    INDEX 01 00:26:26
  TRACK 36 AUDIO
    TITLE "2:cjc102_0185"
    INDEX 01 00:26:34
  TRACK 37 AUDIO
    TITLE "0:"
    INDEX 01 00:27:53
  TRACK 38 AUDIO
    TITLE "3:cjc102_0186"
    INDEX 01 00:28:64
  TRACK 39 AUDIO
    TITLE "0:"
    INDEX 01 00:29:62
  TRACK 40 AUDIO
    TITLE "2:cjc102_0187"
    INDEX 01 00:29:70
  TRACK 41 AUDIO
    TITLE "0:"
    INDEX 01 00:31:14
  TRACK 42 AUDIO
    TITLE "3:cjc102_0188"
    INDEX 01 00:32:11
  TRACK 43 AUDIO
    TITLE "0:"
    INDEX 01 00:33:28
  TRACK 44 AUDIO
    TITLE "2:cjc102_0189"
    INDEX 01 00:33:30
  TRACK 45 AUDIO
    TITLE "0:"
    INDEX 01 00:34:30
  TRACK 46 AUDIO
    TITLE "3:cjc102_0190"
    INDEX 01 00:35:57
  TRACK 47 AUDIO
    TITLE "0:"
    INDEX 01 00:36:62
  TRACK 48 AUDIO
    TITLE "2:cjc102_0191"
    INDEX 01 00:37:07
  TRACK 49 AUDIO
    TITLE "0:"
    INDEX 01 00:38:18
  TRACK 50 AUDIO
    TITLE "3:cjc102_0192"
    INDEX 01 00:39:37
  TRACK 51 AUDIO
    TITLE "0:"
    INDEX 01 00:40:54
  TRACK 52 AUDIO
    TITLE "2:cjc102_0193"
    INDEX 01 00:40:58
  TRACK 53 AUDIO
    TITLE "0:"
    INDEX 01 00:41:73
  TRACK 54 AUDIO
    TITLE "3:cjc102_0194"
    INDEX 01 00:42:63
  TRACK 55 AUDIO
    TITLE "0:"
    INDEX 01 00:43:68
  TRACK 56 AUDIO
    TITLE "2:cjc102_0195"
    INDEX 01 00:44:03
  TRACK 57 AUDIO
    TITLE "0:"
    INDEX 01 00:45:00
  TRACK 58 AUDIO
    TITLE "3:cjc102_0196"
    INDEX 01 00:46:02
  TRACK 59 AUDIO
    TITLE "0:"
    INDEX 01 00:47:03
  TRACK 60 AUDIO
    TITLE "2:cjc102_0197"
    INDEX 01 00:47:28
  TRACK 61 AUDIO
    TITLE "0:"
    INDEX 01 00:48:26
  TRACK 62 AUDIO
    TITLE "3:cjc102_0198"
    INDEX 01 00:49:35
  TRACK 63 AUDIO
    TITLE "0:"
    INDEX 01 00:50:39
  TRACK 64 AUDIO
    TITLE "2:cjc102_0199"
    INDEX 01 00:50:54
  TRACK 65 AUDIO
    TITLE "0:"
    INDEX 01 00:51:60
  TRACK 66 AUDIO
    TITLE "3:cjc102_0200"
    INDEX 01 00:52:61
  TRACK 67 AUDIO
    TITLE "0:"
    INDEX 01 00:53:74
  TRACK 68 AUDIO
    TITLE "2:cjc102_0201"
    INDEX 01 00:54:01
  TRACK 69 AUDIO
    TITLE "0:"
    INDEX 01 00:54:72
  TRACK 70 AUDIO
    TITLE "3:cjc102_0202"
    INDEX 01 00:56:06
  TRACK 71 AUDIO
    TITLE "0:"
    INDEX 01 00:57:19
  TRACK 72 AUDIO
    TITLE "2:cjc102_0203"
    INDEX 01 00:57:25
  TRACK 73 AUDIO
    TITLE "0:"
    INDEX 01 00:58:30
  TRACK 74 AUDIO
    TITLE "3:cjc102_0204"
    INDEX 01 00:59:32
  TRACK 75 AUDIO
    TITLE "0:"
    INDEX 01 01:00:41
  TRACK 76 AUDIO
    TITLE "2:cjc102_0205"
    INDEX 01 01:00:49
  TRACK 77 AUDIO
    TITLE "0:"
    INDEX 01 01:01:44
  TRACK 78 AUDIO
    TITLE "3:cjc102_0206"
    INDEX 01 01:02:59
  TRACK 79 AUDIO
    TITLE "0:"
    INDEX 01 01:03:61
  TRACK 80 AUDIO
    TITLE "2:cjc102_0207"
    INDEX 01 01:03:69
  TRACK 81 AUDIO
    TITLE "0:"
    INDEX 01 01:04:68
  TRACK 82 AUDIO
    TITLE "3:cjc102_0208"
    INDEX 01 01:06:08
  TRACK 83 AUDIO
    TITLE "0:"
    INDEX 01 01:07:35
  TRACK 84 AUDIO
    TITLE "2:cjc102_0209"
    INDEX 01 01:07:63
  TRACK 85 AUDIO
    TITLE "0:"
    INDEX 01 01:08:60
  TRACK 86 AUDIO
    TITLE "3:cjc102_0210"
    INDEX 01 01:09:59
  TRACK 87 AUDIO
    TITLE "0:"
    INDEX 01 01:10:73
  TRACK 88 AUDIO
    TITLE "2:cjc102_0211"
    INDEX 01 01:11:11
  TRACK 89 AUDIO
    TITLE "0:"
    INDEX 01 01:12:13
  TRACK 90 AUDIO
    TITLE "3:cjc102_0212"
    INDEX 01 01:13:22
  TRACK 91 AUDIO
    TITLE "0:"
    INDEX 01 01:14:45
  TRACK 92 AUDIO
    TITLE "2:cjc102_0213"
    INDEX 01 01:14:49
  TRACK 93 AUDIO
    TITLE "0:"
    INDEX 01 01:15:48
  TRACK 94 AUDIO
    TITLE "3:cjc102_0214"
    INDEX 01 01:16:52
  TRACK 95 AUDIO
    TITLE "0:"
    INDEX 01 01:18:00
  TRACK 96 AUDIO
    TITLE "2:cjc102_0215"
    INDEX 01 01:18:02
  TRACK 97 AUDIO
    TITLE "0:"
    INDEX 01 01:19:15
  TRACK 98 AUDIO
    TITLE "3:cjc102_0216"
    INDEX 01 01:20:14
  TRACK 99 AUDIO
    TITLE "0:"
    INDEX 01 01:21:29
  TRACK 100 AUDIO
    TITLE "2:cjc102_0217"
    INDEX 01 01:21:41
  TRACK 101 AUDIO
    TITLE "0:"
    INDEX 01 01:22:44
  TRACK 102 AUDIO
    TITLE "3:cjc102_0218"
    INDEX 01 01:23:52
  TRACK 103 AUDIO
    TITLE "0:"
    INDEX 01 01:24:69
  TRACK 104 AUDIO
    TITLE "2:cjc102_0219"
    INDEX 01 01:24:71
  TRACK 105 AUDIO
    TITLE "0:"
    INDEX 01 01:26:03
  TRACK 106 AUDIO
    TITLE "3:cjc102_0220"
    INDEX 01 01:27:26
  TRACK 107 AUDIO
    TITLE "0:"
    INDEX 01 01:28:53
  TRACK 108 AUDIO
    TITLE "2:cjc102_0221"
    INDEX 01 01:29:27
  TRACK 109 AUDIO
    TITLE "0:"
    INDEX 01 01:30:44
  TRACK 110 AUDIO
    TITLE "2:cjc102_0222"
    INDEX 01 01:31:18
  TRACK 111 AUDIO
    TITLE "0:"
    INDEX 01 01:32:27
  TRACK 112 AUDIO
    TITLE "3:cjc102_0223"
    INDEX 01 01:33:23
  TRACK 113 AUDIO
    TITLE "0:"
    INDEX 01 01:34:48
  TRACK 114 AUDIO
    TITLE "2:cjc102_0224"
    INDEX 01 01:35:02
  TRACK 115 AUDIO
    TITLE "0:"
    INDEX 01 01:36:13
  TRACK 116 AUDIO
    TITLE "2:cjc102_0225"
    INDEX 01 01:36:54
  TRACK 117 AUDIO
    TITLE "0:"
    INDEX 01 01:37:71
  TRACK 118 AUDIO
    TITLE "3:cjc102_0226"
    INDEX 01 01:39:08
  TRACK 119 AUDIO
    TITLE "0:"
    INDEX 01 01:40:31
  TRACK 120 AUDIO
    TITLE "2:cjc102_0227"
    INDEX 01 01:41:05
  TRACK 121 AUDIO
    TITLE "0:"
    INDEX 01 01:42:14
  TRACK 122 AUDIO
    TITLE "2:cjc102_0228"
    INDEX 01 01:42:53
  TRACK 123 AUDIO
    TITLE "0:"
    INDEX 01 01:43:54
  TRACK 124 AUDIO
    TITLE "3:cjc102_0229"
    INDEX 01 01:44:72
  TRACK 125 AUDIO
    TITLE "0:"
    INDEX 01 01:46:08
  TRACK 126 AUDIO
    TITLE "2:cjc102_0230"
    INDEX 01 01:46:49
  TRACK 127 AUDIO
    TITLE "0:"
    INDEX 01 01:47:50
  TRACK 128 AUDIO
    TITLE "2:cjc102_0231"
    INDEX 01 01:48:22
  TRACK 129 AUDIO
    TITLE "0:"
    INDEX 01 01:49:20
  TRACK 130 AUDIO
    TITLE "3:cjc102_0232"
    INDEX 01 01:50:07
  TRACK 131 AUDIO
    TITLE "0:"
    INDEX 01 01:51:40
  TRACK 132 AUDIO
    TITLE "2:cjc102_0233"
    INDEX 01 01:51:68
  TRACK 133 AUDIO
    TITLE "0:"
    INDEX 01 01:53:27
  TRACK 134 AUDIO
    TITLE "2:cjc102_0234"
    INDEX 01 01:53:63
  TRACK 135 AUDIO
    TITLE "0:"
    INDEX 01 01:55:03
  TRACK 136 AUDIO
    TITLE "3:cjc102_0235"
    INDEX 01 01:56:22
  TRACK 137 AUDIO
    TITLE "0:"
    INDEX 01 01:57:41
  TRACK 138 AUDIO
    TITLE "2:cjc102_0236"
    INDEX 01 01:58:01
  TRACK 139 AUDIO
    TITLE "0:"
    INDEX 01 01:59:10
  TRACK 140 AUDIO
    TITLE "2:cjc102_0237"
    INDEX 01 01:59:42
  TRACK 141 AUDIO
    TITLE "0:"
    INDEX 01 02:00:47
  TRACK 142 AUDIO
    TITLE "3:cjc102_0238"
    INDEX 01 02:01:64
  TRACK 143 AUDIO
    TITLE "0:"
    INDEX 01 02:03:24
  TRACK 144 AUDIO
    TITLE "2:cjc102_0239"
    INDEX 01 02:03:45
  TRACK 145 AUDIO
    TITLE "0:"
    INDEX 01 02:04:53
  TRACK 146 AUDIO
    TITLE "2:cjc102_0240"
    INDEX 01 02:05:19
  TRACK 147 AUDIO
    TITLE "0:"
    INDEX 01 02:06:26
  TRACK 148 AUDIO
    TITLE "3:cjc102_0241"
    INDEX 01 02:07:43
  TRACK 149 AUDIO
    TITLE "0:"
    INDEX 01 02:09:03
  TRACK 150 AUDIO
    TITLE "2:cjc102_0242"
    INDEX 01 02:09:22
  TRACK 151 AUDIO
    TITLE "0:"
    INDEX 01 02:10:36
  TRACK 152 AUDIO
    TITLE "2:cjc102_0243"
    INDEX 01 02:10:55
  TRACK 153 AUDIO
    TITLE "0:"
    INDEX 01 02:11:70
  TRACK 154 AUDIO
    TITLE "3:cjc102_0244"
    INDEX 01 02:13:01
  TRACK 155 AUDIO
    TITLE "0:"
    INDEX 01 02:14:24
  TRACK 156 AUDIO
    TITLE "2:cjc102_0245"
    INDEX 01 02:14:61
  TRACK 157 AUDIO
    TITLE "0:"
    INDEX 01 02:15:72
  TRACK 158 AUDIO
    TITLE "2:cjc102_0246"
    INDEX 01 02:16:24
  TRACK 159 AUDIO
    TITLE "0:"
    INDEX 01 02:17:42
